<?xml version="1.0" encoding="UTF-8" standalone="no"?>
<!DOCTYPE svg PUBLIC "-//W3C//DTD SVG 1.1//EN" "http://www.w3.org/Graphics/SVG/1.1/DTD/svg11.dtd">
<svg version="1.1" xmlns="http://www.w3.org/2000/svg" xmlns:xlink="http://www.w3.org/1999/xlink" preserveAspectRatio="xMidYMid meet" viewBox="0 0 16 16" width="16" height="16"><defs><path d="M2.95 14.53C2.95 15.08 2.5 15.53 1.95 15.53C1.39 15.53 0.95 15.08 0.95 14.53C0.95 13.98 1.39 13.53 1.95 13.53C2.5 13.53 2.95 13.98 2.95 14.53Z" id="a28LpCdM5P"></path><path d="M3.55 13.24L3.55 13.24L3.49 13.24L3.55 13.24Z" id="b44RYx8pAh"></path><path d="M8.24 7.35L8.24 7.41L8.18 7.41L8.24 7.35Z" id="c3FNFNJE6F"></path><path d="M4.46 12.02L2.46 14.02" id="e48kTTrrX"></path><path d="M6.24 11.43C6.27 11.98 5.85 12.45 5.3 12.48C4.75 12.51 4.27 12.09 4.24 11.54C4.21 10.99 4.63 10.52 5.18 10.48C5.73 10.45 6.21 10.87 6.24 11.43Z" id="ahnaIlNAu"></path><path d="M2.61 8.77C2.61 9.32 2.17 9.77 1.61 9.77C1.06 9.77 0.61 9.32 0.61 8.77C0.61 8.21 1.06 7.77 1.61 7.77C2.17 7.77 2.61 8.21 2.61 8.77Z" id="b30gS4uDC3"></path><path d="M4.68 10.94L2.3 9.41" id="hbef2sso4"></path><path d="M8.53 5.78C8.56 6.33 8.14 6.8 7.59 6.83C7.04 6.86 6.56 6.44 6.53 5.89C6.5 5.34 6.92 4.87 7.47 4.84C8.02 4.8 8.5 5.23 8.53 5.78Z" id="bC6QJ3B0E"></path><path d="M10.18 12.61C10.21 13.16 9.79 13.63 9.24 13.66C8.69 13.69 8.21 13.27 8.18 12.72C8.15 12.17 8.57 11.7 9.12 11.66C9.67 11.63 10.15 12.06 10.18 12.61Z" id="dHIQnl86w"></path><path d="M3.28 3.41C3.31 3.96 2.88 4.43 2.33 4.46C1.78 4.49 1.31 4.07 1.28 3.52C1.25 2.97 1.67 2.5 2.22 2.47C2.77 2.43 3.24 2.86 3.28 3.41Z" id="bHQMeFQIW"></path><path d="M15.77 2.18C15.81 2.73 15.38 3.21 14.83 3.24C14.28 3.27 13.81 2.85 13.78 2.29C13.75 1.74 14.17 1.27 14.72 1.24C15.27 1.21 15.74 1.63 15.77 2.18Z" id="e246L3aUP1"></path><path d="M14.33 8.71C14.36 9.26 13.94 9.73 13.39 9.76C12.84 9.8 12.36 9.37 12.33 8.82C12.3 8.27 12.72 7.8 13.27 7.77C13.83 7.74 14.3 8.16 14.33 8.71Z" id="bUM08HR1"></path><path d="M8.53 12.84L5.95 11.68" id="bMoTtdpcd"></path><path d="M13.23 9.12L9.79 12.48" id="b114n37mzb"></path><path d="M12.61 8.08L8.24 6.08" id="c2Ef2MFeKw"></path><path d="M7.27 6.46L5.21 10.8" id="e2Fi8k6o8P"></path><path d="M6.89 5.83L2.61 3.63" id="a8uaSutaQm"></path><path d="M14.22 2.71L7.77 5.16" id="bjHdynnQA"></path><path d="M14.78 3.18L13.33 7.77" id="l1gzpV2zx6"></path><path d="M15.77 13.19C15.81 13.74 15.38 14.21 14.83 14.24C14.28 14.27 13.81 13.85 13.78 13.3C13.75 12.75 14.17 12.27 14.72 12.24C15.27 12.21 15.74 12.63 15.77 13.19Z" id="e18FXLIVdc"></path><path d="M14.28 13.31L9.48 12.99" id="aQEbItIeF"></path><path d="M14.59 12.48L13.84 9.75" id="be3AUcwWf"></path></defs><g><g><g><use xlink:href="#a28LpCdM5P" opacity="1" fill="#fe9513" fill-opacity="1"></use></g><g><use xlink:href="#b44RYx8pAh" opacity="1" fill="#13fed2" fill-opacity="1"></use></g><g><use xlink:href="#c3FNFNJE6F" opacity="1" fill="#13fed2" fill-opacity="1"></use></g><g><use xlink:href="#e48kTTrrX" opacity="1" fill="#e7781e" fill-opacity="1"></use><g><use xlink:href="#e48kTTrrX" opacity="1" fill-opacity="0" stroke="#e49613" stroke-width="0.3" stroke-opacity="1"></use></g></g><g><use xlink:href="#ahnaIlNAu" opacity="1" fill="#fe9513" fill-opacity="1"></use></g><g><use xlink:href="#b30gS4uDC3" opacity="1" fill="#fe9513" fill-opacity="1"></use></g><g><use xlink:href="#hbef2sso4" opacity="1" fill="#e7781e" fill-opacity="1"></use><g><use xlink:href="#hbef2sso4" opacity="1" fill-opacity="0" stroke="#e49613" stroke-width="0.3" stroke-opacity="1"></use></g></g><g><use xlink:href="#bC6QJ3B0E" opacity="1" fill="#fe9513" fill-opacity="1"></use><g><use xlink:href="#bC6QJ3B0E" opacity="1" fill-opacity="0" stroke="#f5a886" stroke-width="0" stroke-opacity="1"></use></g></g><g><use xlink:href="#dHIQnl86w" opacity="1" fill="#fe9513" fill-opacity="1"></use></g><g><use xlink:href="#bHQMeFQIW" opacity="1" fill="#fe9513" fill-opacity="1"></use><g><use xlink:href="#bHQMeFQIW" opacity="1" fill-opacity="0" stroke="#f5a886" stroke-width="0" stroke-opacity="1"></use></g></g><g><use xlink:href="#e246L3aUP1" opacity="1" fill="#fe9513" fill-opacity="1"></use><g><use xlink:href="#e246L3aUP1" opacity="1" fill-opacity="0" stroke="#f5a886" stroke-width="0" stroke-opacity="1"></use></g></g><g><use xlink:href="#bUM08HR1" opacity="1" fill="#fe9513" fill-opacity="1"></use><g><use xlink:href="#bUM08HR1" opacity="1" fill-opacity="0" stroke="#f5a886" stroke-width="0" stroke-opacity="1"></use></g></g><g><use xlink:href="#bMoTtdpcd" opacity="1" fill="#e7781e" fill-opacity="1"></use><g><use xlink:href="#bMoTtdpcd" opacity="1" fill-opacity="0" stroke="#e49613" stroke-width="0.3" stroke-opacity="1"></use></g></g><g><use xlink:href="#b114n37mzb" opacity="1" fill="#e7781e" fill-opacity="1"></use><g><use xlink:href="#b114n37mzb" opacity="1" fill-opacity="0" stroke="#e49613" stroke-width="0.3" stroke-opacity="1"></use></g></g><g><use xlink:href="#c2Ef2MFeKw" opacity="1" fill="#e7781e" fill-opacity="1"></use><g><use xlink:href="#c2Ef2MFeKw" opacity="1" fill-opacity="0" stroke="#e49613" stroke-width="0.3" stroke-opacity="1"></use></g></g><g><use xlink:href="#e2Fi8k6o8P" opacity="1" fill="#e7781e" fill-opacity="1"></use><g><use xlink:href="#e2Fi8k6o8P" opacity="1" fill-opacity="0" stroke="#e49613" stroke-width="0.3" stroke-opacity="1"></use></g></g><g><use xlink:href="#a8uaSutaQm" opacity="1" fill="#e7781e" fill-opacity="1"></use><g><use xlink:href="#a8uaSutaQm" opacity="1" fill-opacity="0" stroke="#e49613" stroke-width="0.3" stroke-opacity="1"></use></g></g><g><use xlink:href="#bjHdynnQA" opacity="1" fill="#e7781e" fill-opacity="1"></use><g><use xlink:href="#bjHdynnQA" opacity="1" fill-opacity="0" stroke="#e49613" stroke-width="0.3" stroke-opacity="1"></use></g></g><g><use xlink:href="#l1gzpV2zx6" opacity="1" fill="#e7781e" fill-opacity="1"></use><g><use xlink:href="#l1gzpV2zx6" opacity="1" fill-opacity="0" stroke="#e49613" stroke-width="0.3" stroke-opacity="1"></use></g></g><g><use xlink:href="#e18FXLIVdc" opacity="1" fill="#fe9513" fill-opacity="1"></use><g><use xlink:href="#e18FXLIVdc" opacity="1" fill-opacity="0" stroke="#f5a886" stroke-width="0" stroke-opacity="1"></use></g></g><g><use xlink:href="#aQEbItIeF" opacity="1" fill="#e7781e" fill-opacity="1"></use><g><use xlink:href="#aQEbItIeF" opacity="1" fill-opacity="0" stroke="#e49613" stroke-width="0.3" stroke-opacity="1"></use></g></g><g><use xlink:href="#be3AUcwWf" opacity="1" fill="#e7781e" fill-opacity="1"></use><g><use xlink:href="#be3AUcwWf" opacity="1" fill-opacity="0" stroke="#e49613" stroke-width="0.3" stroke-opacity="1"></use></g></g></g></g></svg>