<?xml version="1.0" encoding="UTF-8" standalone="no"?>
<!DOCTYPE svg PUBLIC "-//W3C//DTD SVG 1.1//EN" "http://www.w3.org/Graphics/SVG/1.1/DTD/svg11.dtd">
<svg version="1.1" xmlns="http://www.w3.org/2000/svg" xmlns:xlink="http://www.w3.org/1999/xlink" preserveAspectRatio="xMidYMid meet" viewBox="0 0 16 16" width="16" height="16"><defs><path d="M2.95 14.53C2.95 15.08 2.5 15.53 1.95 15.53C1.39 15.53 0.95 15.08 0.95 14.53C0.95 13.98 1.39 13.53 1.95 13.53C2.5 13.53 2.95 13.98 2.95 14.53Z" id="a28LpCdM5P"></path><path d="M3.55 13.24L3.55 13.24L3.49 13.24L3.55 13.24Z" id="b44RYx8pAh"></path><path d="M8.24 7.35L8.24 7.41L8.18 7.41L8.24 7.35Z" id="c3FNFNJE6F"></path><path d="M4.46 12.02L2.46 14.02" id="b36DLr2Qvz"></path><path d="M6.94 10.84C6.99 11.67 6.36 12.38 5.53 12.42C4.7 12.47 3.99 11.84 3.95 11.01C3.9 10.18 4.53 9.48 5.36 9.43C6.19 9.38 6.89 10.01 6.94 10.84Z" id="c9fYzpYnP2"></path><path d="M2.72 8.71C2.72 9.26 2.27 9.71 1.72 9.71C1.17 9.71 0.72 9.26 0.72 8.71C0.72 8.16 1.17 7.71 1.72 7.71C2.27 7.71 2.72 8.16 2.72 8.71Z" id="d4WCPbsykj"></path><path d="M4.68 10.94L2.3 9.41" id="hbef2sso4"></path><path d="M12.04 8.12C12.11 9.22 11.26 10.17 10.16 10.23C9.06 10.3 8.11 9.45 8.05 8.35C7.99 7.25 8.83 6.3 9.93 6.24C11.03 6.18 11.98 7.02 12.04 8.12Z" id="a8ijhGQQ2j"></path><path d="M15.64 14.01C15.67 14.56 15.25 15.04 14.7 15.07C14.15 15.1 13.68 14.68 13.65 14.13C13.61 13.58 14.04 13.1 14.59 13.07C15.14 13.04 15.61 13.46 15.64 14.01Z" id="bTNDiX5b"></path><path d="M5.87 2.28C5.92 3.11 5.28 3.82 4.46 3.86C3.63 3.91 2.92 3.28 2.88 2.45C2.83 1.63 3.46 0.92 4.29 0.87C5.11 0.82 5.82 1.46 5.87 2.28Z" id="b2iP51IrqC"></path><path d="M15.46 2.34C15.51 3.16 14.88 3.87 14.05 3.92C13.22 3.97 12.52 3.33 12.47 2.51C12.42 1.68 13.05 0.97 13.88 0.92C14.71 0.88 15.42 1.51 15.46 2.34Z" id="a9hakHcxU"></path><path d="M14.47 13.74L11.07 8.58" id="gsXjiLNZK"></path><path d="M8.95 9.4L6.33 10.45" id="a1J2lo0zPu"></path><path d="M10.12 6.65L13.74 2.3" id="fVkU5smlW"></path><path d="M8.6 6.83L5.23 3.4" id="arJf6RFZF"></path></defs><g><g><g><use xlink:href="#a28LpCdM5P" opacity="1" fill="#fe9513" fill-opacity="1"></use></g><g><use xlink:href="#b44RYx8pAh" opacity="1" fill="#13fed2" fill-opacity="1"></use></g><g><use xlink:href="#c3FNFNJE6F" opacity="1" fill="#13fed2" fill-opacity="1"></use></g><g><use xlink:href="#b36DLr2Qvz" opacity="1" fill="#e7781e" fill-opacity="1"></use><g><use xlink:href="#b36DLr2Qvz" opacity="1" fill-opacity="0" stroke="#e49613" stroke-width="0.4" stroke-opacity="1"></use></g></g><g><use xlink:href="#c9fYzpYnP2" opacity="1" fill="#fe9513" fill-opacity="1"></use></g><g><use xlink:href="#d4WCPbsykj" opacity="1" fill="#fe9513" fill-opacity="1"></use></g><g><use xlink:href="#hbef2sso4" opacity="1" fill="#e7781e" fill-opacity="1"></use><g><use xlink:href="#hbef2sso4" opacity="1" fill-opacity="0" stroke="#e49613" stroke-width="0.3" stroke-opacity="1"></use></g></g><g><use xlink:href="#a8ijhGQQ2j" opacity="1" fill="#fe9513" fill-opacity="1"></use><g><use xlink:href="#a8ijhGQQ2j" opacity="1" fill-opacity="0" stroke="#f5a886" stroke-width="0" stroke-opacity="1"></use></g></g><g><use xlink:href="#bTNDiX5b" opacity="1" fill="#fe9513" fill-opacity="1"></use></g><g><use xlink:href="#b2iP51IrqC" opacity="1" fill="#fe9513" fill-opacity="1"></use><g><use xlink:href="#b2iP51IrqC" opacity="1" fill-opacity="0" stroke="#f5a886" stroke-width="0" stroke-opacity="1"></use></g></g><g><use xlink:href="#a9hakHcxU" opacity="1" fill="#fe9513" fill-opacity="1"></use><g><use xlink:href="#a9hakHcxU" opacity="1" fill-opacity="0" stroke="#f5a886" stroke-width="0" stroke-opacity="1"></use></g></g><g><use xlink:href="#gsXjiLNZK" opacity="1" fill="#e7781e" fill-opacity="1"></use><g><use xlink:href="#gsXjiLNZK" opacity="1" fill-opacity="0" stroke="#e49613" stroke-width="0.3" stroke-opacity="1"></use></g></g><g><use xlink:href="#a1J2lo0zPu" opacity="1" fill="#e7781e" fill-opacity="1"></use><g><use xlink:href="#a1J2lo0zPu" opacity="1" fill-opacity="0" stroke="#e49613" stroke-width="0.5" stroke-opacity="1"></use></g></g><g><use xlink:href="#fVkU5smlW" opacity="1" fill="#e7781e" fill-opacity="1"></use><g><use xlink:href="#fVkU5smlW" opacity="1" fill-opacity="0" stroke="#e49613" stroke-width="0.5" stroke-opacity="1"></use></g></g><g><use xlink:href="#arJf6RFZF" opacity="1" fill="#e7781e" fill-opacity="1"></use><g><use xlink:href="#arJf6RFZF" opacity="1" fill-opacity="0" stroke="#e49613" stroke-width="0.3" stroke-opacity="1"></use></g></g></g></g></svg>